<?xml version="1.0" encoding="utf-8"?>
<svg version="1.1" xmlns:xlink="http://www.w3.org/1999/xlink" width="40px" height="40px" xmlns="http://www.w3.org/2000/svg">
  <defs>
    <filter x="219px" y="427px" width="40px" height="40px" filterUnits="userSpaceOnUse" id="filter106">
      <feOffset dx="1" dy="1" in="SourceAlpha" result="shadowOffsetInner" />
      <feGaussianBlur stdDeviation="2.5" in="shadowOffsetInner" result="shadowGaussian" />
      <feComposite in2="shadowGaussian" operator="atop" in="SourceAlpha" result="shadowComposite" />
      <feColorMatrix type="matrix" values="0 0 0 0 0  0 0 0 0 0  0 0 0 0 0  0 0 0 0.698039215686274 0  " in="shadowComposite" />
    </filter>
    <g id="widget107">
      <path d="M 238 431  C 246.4 431  253 437.6  253 446  C 253 454.4  246.4 461  238 461  C 229.6 461  223 454.4  223 446  C 223 437.6  229.6 431  238 431  Z " fill-rule="nonzero" fill="#009dd9" stroke="none" />
      <path d="M 238 431.5  C 246.12 431.5  252.5 437.88  252.5 446  C 252.5 454.12  246.12 460.5  238 460.5  C 229.88 460.5  223.5 454.12  223.5 446  C 223.5 437.88  229.88 431.5  238 431.5  Z " stroke-width="1" stroke="#ffffff" fill="none" />
    </g>
  </defs>
  <g transform="matrix(1 0 0 1 -219 -427 )">
    <use xlink:href="#widget107" filter="url(#filter106)" />
    <use xlink:href="#widget107" />
  </g>
</svg>