<?xml version="1.0" encoding="utf-8"?>
<svg version="1.1" xmlns:xlink="http://www.w3.org/1999/xlink" width="15px" height="18px" xmlns="http://www.w3.org/2000/svg">
  <g transform="matrix(1 0 0 1 -524 -1006 )">
    <path d="M 2.63748191027496 9  C 2.63748191027496 9.38221153846154  2.6917510853835 9.78966346153846  2.80028943560058 10.2223557692308  L 1.7040520984081 11.3149038461538  C 1.40014471780029 10.5721153846154  1.24819102749638 9.80048076923077  1.24819102749638 9  L 1.24819102749638 7.61538461538462  C 1.24819102749638 7.42788461538461  1.31693198263386 7.265625  1.45441389290883 7.12860576923077  C 1.59189580318379 6.99158653846154  1.75470332850941 6.92307692307692  1.94283646888567 6.92307692307692  C 2.13096960926194 6.92307692307692  2.29377713458755 6.99158653846154  2.43125904486252 7.12860576923077  C 2.56874095513748 7.265625  2.63748191027496 7.42788461538461  2.63748191027496 7.61538461538462  L 2.63748191027496 9  Z M 15 3.46153846153846  C 15 3.55528846153846  14.9638205499276 3.63822115384615  14.8914616497829 3.71033653846154  L 10.9732272069465 7.61538461538462  L 10.9732272069465 9  C 10.9732272069465 9.95192307692308  10.6331403762663 10.7668269230769  9.95296671490593 11.4447115384615  C 9.27279305354559 12.1225961538462  8.45513748191027 12.4615384615385  7.5 12.4615384615385  C 7.10202604920405 12.4615384615385  6.70767004341534 12.3930288461538  6.31693198263386 12.2560096153846  L 5.27496382054993 13.2944711538462  C 5.97684515195369 13.6622596153846  6.71852387843705 13.8461538461538  7.5 13.8461538461538  C 8.83863965267728 13.8461538461538  9.98371924746744 13.3719951923077  10.9352387843705 12.4236778846154  C 11.8867583212735 11.4753605769231  12.362518089725 10.3341346153846  12.362518089725 9  L 12.362518089725 7.61538461538462  C 12.362518089725 7.42788461538461  12.4312590448625 7.265625  12.5687409551375 7.12860576923077  C 12.7062228654124 6.99158653846154  12.8690303907381 6.92307692307692  13.0571635311143 6.92307692307692  C 13.2452966714906 6.92307692307692  13.4081041968162 6.99158653846154  13.5455861070912 7.12860576923077  C 13.6830680173661 7.265625  13.7518089725036 7.42788461538461  13.7518089725036 7.61538461538462  L 13.7518089725036 9  C 13.7518089725036 10.59375  13.2181620839363 11.9801682692308  12.1508683068017 13.1592548076923  C 11.0835745296671 14.3383413461538  9.76483357452967 15.0144230769231  8.19464544138929 15.1875  L 8.19464544138929 16.6153846153846  L 10.9732272069465 16.6153846153846  C 11.1613603473227 16.6153846153846  11.3241678726483 16.6838942307692  11.4616497829233 16.8209134615385  C 11.5991316931983 16.9579326923077  11.6678726483357 17.1201923076923  11.6678726483357 17.3076923076923  C 11.6678726483357 17.4951923076923  11.5991316931983 17.6574519230769  11.4616497829233 17.7944711538462  C 11.3241678726483 17.9314903846154  11.1613603473227 18  10.9732272069465 18  L 4.02677279305355 18  C 3.83863965267728 18  3.67583212735166 17.9314903846154  3.5383502170767 17.7944711538462  C 3.40086830680174 17.6574519230769  3.33212735166425 17.4951923076923  3.33212735166425 17.3076923076923  C 3.33212735166425 17.1201923076923  3.40086830680174 16.9579326923077  3.5383502170767 16.8209134615385  C 3.67583212735166 16.6838942307692  3.83863965267728 16.6153846153846  4.02677279305355 16.6153846153846  L 6.80535455861071 16.6153846153846  L 6.80535455861071 15.1875  C 5.90086830680174 15.09375  5.0506512301013 14.8016826923077  4.25470332850941 14.3112980769231  L 1.49782923299566 17.0588942307692  C 1.42547033285094 17.1310096153846  1.34225759768452 17.1670673076923  1.24819102749638 17.1670673076923  C 1.15412445730825 17.1670673076923  1.07091172214182 17.1310096153846  0.998552821997106 17.0588942307692  L 0.108538350217077 16.171875  C 0.0361794500723589 16.0997596153846  0 16.0168269230769  0 15.9230769230769  C 0 15.8293269230769  0.0361794500723589 15.7463942307692  0.108538350217077 15.6742788461538  L 13.5021707670043 2.32572115384615  C 13.5745296671491 2.25360576923077  13.6577424023155 2.21754807692308  13.7518089725036 2.21754807692308  C 13.8458755426918 2.21754807692308  13.9290882778582 2.25360576923077  14.0014471780029 2.32572115384615  L 14.8914616497829 3.21274038461538  C 14.9638205499276 3.28485576923077  15 3.36778846153846  15 3.46153846153846  Z M 9.50253256150507 0.638221153846153  C 10.099493487699 1.06370192307692  10.520984081042 1.61177884615385  10.767004341534 2.28245192307692  L 4.02677279305355 9  L 4.02677279305355 3.46153846153846  C 4.02677279305355 2.50961538461538  4.36685962373372 1.69471153846154  5.04703328509407 1.01682692307692  C 5.72720694645442 0.338942307692309  6.54486251808973 0  7.5 0  C 8.23806078147612 0  8.90557163531114 0.212740384615386  9.50253256150507 0.638221153846153  Z " fill-rule="nonzero" fill="#000000" stroke="none" transform="matrix(1 0 0 1 524 1006 )" />
  </g>
</svg>