<?xml version="1.0" encoding="utf-8"?>
<svg version="1.1" xmlns:xlink="http://www.w3.org/1999/xlink" width="331px" height="104px" xmlns="http://www.w3.org/2000/svg">
  <g transform="matrix(1 0 0 1 -44 -391 )">
    <path d="M 45 395  A 3 3 0 0 1 48 392 L 371 392  A 3 3 0 0 1 374 395 L 374 491  A 3 3 0 0 1 371 494 L 48 494  A 3 3 0 0 1 45 491 L 45 395  Z " fill-rule="nonzero" fill="#000000" stroke="none" fill-opacity="0.0196078431372549" />
    <path d="M 44.5 395  A 3.5 3.5 0 0 1 48 391.5 L 371 391.5  A 3.5 3.5 0 0 1 374.5 395 L 374.5 491  A 3.5 3.5 0 0 1 371 494.5 L 48 494.5  A 3.5 3.5 0 0 1 44.5 491 L 44.5 395  Z " stroke-width="1" stroke-dasharray="9,4" stroke="#d9d9d9" fill="none" stroke-dashoffset="0.5" />
  </g>
</svg>