<?xml version="1.0" encoding="utf-8"?>
<svg version="1.1" xmlns:xlink="http://www.w3.org/1999/xlink" width="14px" height="14px" xmlns="http://www.w3.org/2000/svg">
  <g transform="matrix(1 0 0 1 -362 -63 )">
    <path d="M 369 64  C 372.36 64  375 66.64  375 70  C 375 73.36  372.36 76  369 76  C 365.64 76  363 73.36  363 70  C 363 66.64  365.64 64  369 64  Z " fill-rule="nonzero" fill="#0d0d51" stroke="none" />
    <path d="M 369 64  C 372.36 64  375 66.64  375 70  C 375 73.36  372.36 76  369 76  C 365.64 76  363 73.36  363 70  C 363 66.64  365.64 64  369 64  Z " stroke-width="2" stroke="#ffffff" fill="none" />
  </g>
</svg>