<?xml version="1.0" encoding="utf-8"?>
<svg version="1.1" xmlns:xlink="http://www.w3.org/1999/xlink" width="19px" height="20px" xmlns="http://www.w3.org/2000/svg">
  <g transform="matrix(1 0 0 1 -271 -932 )">
    <path d="M 2.931640625 4.38701923076923  C 3.08832465277778 4.23477564102564  3.16666666666667 4.05448717948718  3.16666666666667 3.84615384615385  C 3.16666666666667 3.63782051282051  3.08832465277778 3.45753205128205  2.931640625 3.30528846153846  C 2.77495659722222 3.15304487179487  2.58940972222222 3.07692307692308  2.375 3.07692307692308  C 2.16059027777778 3.07692307692308  1.97504340277778 3.15304487179487  1.818359375 3.30528846153846  C 1.66167534722222 3.45753205128205  1.58333333333333 3.63782051282051  1.58333333333333 3.84615384615385  C 1.58333333333333 4.05448717948718  1.66167534722222 4.23477564102564  1.818359375 4.38701923076923  C 1.97504340277778 4.53926282051282  2.16059027777778 4.61538461538462  2.375 4.61538461538462  C 2.58940972222222 4.61538461538462  2.77495659722222 4.53926282051282  2.931640625 4.38701923076923  Z M 16.9342447916667 11.8449519230769  C 17.255859375 11.5364583333333  17.4166666666667 11.1778846153846  17.4166666666667 10.7692307692308  C 17.4166666666667 10.4887820512821  17.3280164930556 10.1642628205128  17.1507161458333 9.79567307692308  C 16.9734157986111 9.42708333333333  16.7528211805556 9.23878205128205  16.4889322916667 9.23076923076923  C 16.6126302083333 9.09455128205128  16.7157118055556 8.90424679487179  16.7981770833333 8.65985576923077  C 16.8806423611111 8.41546474358974  16.921875 8.19310897435897  16.921875 7.99278846153846  C 16.921875 7.43990384615385  16.7033420138889 6.96314102564102  16.2662760416667 6.5625  C 16.4147135416667 6.31410256410256  16.4889322916667 6.03766025641026  16.4889322916667 5.73317307692308  C 16.4889322916667 5.43669871794872  16.4167751736111 5.14222756410256  16.2724609375 4.84975961538462  C 16.1281467013889 4.55729166666667  15.9322916666667 4.34695512820513  15.6848958333333 4.21875  C 15.7261284722222 3.97836538461539  15.7467447916667 3.75400641025641  15.7467447916667 3.54567307692308  C 15.7467447916667 2.86458333333333  15.5447048611111 2.35977564102564  15.140625 2.03125  C 14.7365451388889 1.70272435897436  14.17578125 1.53846153846154  13.4583333333333 1.53846153846154  L 11.875 1.53846153846154  C 10.7947048611111 1.53846153846154  9.38454861111111 1.83092948717949  7.64453125 2.41586538461539  C 7.60329861111111 2.43189102564102  7.48372395833333 2.47395833333333  7.28580729166667 2.54206730769231  C 7.087890625 2.61017628205128  6.94151475694444 2.66025641025641  6.8466796875 2.69230769230769  C 6.75184461805556 2.72435897435897  6.60753038194444 2.77043269230769  6.41373697916667 2.83052884615385  C 6.21994357638889 2.890625  6.06325954861111 2.93469551282051  5.94368489583333 2.96274038461539  C 5.82411024305556 2.99078525641026  5.68804253472222 3.01682692307692  5.53548177083333 3.04086538461539  C 5.38292100694444 3.06490384615385  5.25303819444444 3.07692307692308  5.14583333333333 3.07692307692308  L 4.75 3.07692307692308  L 4.75 10.7692307692308  L 5.14583333333333 10.7692307692308  C 5.27777777777778 10.7692307692308  5.42415364583333 10.8052884615385  5.5849609375 10.8774038461538  C 5.74576822916667 10.9495192307692  5.91069878472222 11.0576923076923  6.07975260416667 11.2019230769231  C 6.24880642361111 11.3461538461538  6.40755208333333 11.4883814102564  6.55598958333333 11.6286057692308  C 6.70442708333333 11.7688301282051  6.86935763888889 11.9451121794872  7.05078125 12.1574519230769  C 7.23220486111111 12.3697916666667  7.37445746527778 12.5400641025641  7.4775390625 12.6682692307692  C 7.58062065972222 12.7964743589744  7.71050347222222 12.9607371794872  7.8671875 13.1610576923077  C 8.02387152777778 13.3613782051282  8.11870659722222 13.4815705128205  8.15169270833333 13.5216346153846  C 8.60525173611111 14.0665064102564  8.92274305555556 14.4310897435897  9.10416666666667 14.6153846153846  C 9.44227430555556 14.9599358974359  9.68760850694445 15.3986378205128  9.84016927083333 15.9314903846154  C 9.99273003472222 16.4643429487179  10.1184895833333 16.9671474358974  10.2174479166667 17.4399038461538  C 10.31640625 17.9126602564103  10.4730902777778 18.2532051282051  10.6875 18.4615384615385  C 11.4791666666667 18.4615384615385  12.0069444444444 18.2732371794872  12.2708333333333 17.8966346153846  C 12.5347222222222 17.5200320512821  12.6666666666667 16.9391025641026  12.6666666666667 16.1538461538462  C 12.6666666666667 15.6810897435897  12.46875 15.0380608974359  12.0729166666667 14.2247596153846  C 11.6770833333333 13.4114583333333  11.4791666666667 12.7724358974359  11.4791666666667 12.3076923076923  L 15.8333333333333 12.3076923076923  C 16.2456597222222 12.3076923076923  16.6126302083333 12.1534455128205  16.9342447916667 11.8449519230769  Z M 18.3938802083333 8.82211538461539  C 18.7979600694444 9.40705128205128  19 10.0600961538462  19 10.78125  C 19 11.6065705128205  18.6866319444444 12.3237179487179  18.0598958333333 12.9326923076923  C 17.4331597222222 13.5416666666667  16.6909722222222 13.8461538461538  15.8333333333333 13.8461538461538  L 13.65625 13.8461538461538  C 14.0520833333333 14.6394230769231  14.25 15.4086538461538  14.25 16.1538461538462  C 14.25 17.099358974359  14.1056857638889 17.8445512820513  13.8170572916667 18.3894230769231  C 13.5284288194444 18.9423076923077  13.1078559027778 19.3489583333333  12.5553385416667 19.609375  C 12.0028211805556 19.8697916666667  11.3802083333333 20  10.6875 20  C 10.2669270833333 20  9.89583333333333 19.8517628205128  9.57421875 19.5552884615385  C 9.29383680555556 19.2908653846154  9.07118055555556 18.9623397435897  8.90625 18.5697115384615  C 8.74131944444444 18.1770833333333  8.63617621527778 17.8145032051282  8.5908203125 17.4819711538462  C 8.54546440972222 17.1494391025641  8.47330729166667 16.8108974358974  8.37434895833333 16.4663461538462  C 8.275390625 16.1217948717949  8.14756944444444 15.8653846153846  7.99088541666667 15.6971153846154  C 7.59505208333333 15.2964743589744  7.15386284722222 14.7876602564103  6.66731770833333 14.1706730769231  C 5.83441840277778 13.1209935897436  5.26953125 12.5  4.97265625 12.3076923076923  L 1.58333333333333 12.3076923076923  C 1.14626736111111 12.3076923076923  0.773111979166667 12.1574519230769  0.4638671875 11.8569711538462  C 0.154622395833333 11.5564903846154  0 11.1939102564103  0 10.7692307692308  L 0 3.07692307692308  C 0 2.65224358974359  0.154622395833333 2.28966346153846  0.4638671875 1.98918269230769  C 0.773111979166667 1.68870192307692  1.14626736111111 1.53846153846154  1.58333333333333 1.53846153846154  L 5.14583333333333 1.53846153846154  C 5.32725694444444 1.53846153846154  5.89626736111111 1.37820512820513  6.85286458333333 1.05769230769231  C 7.90842013888889 0.705128205128203  8.82790798611111 0.440705128205126  9.611328125 0.264423076923077  C 10.3947482638889 0.0881410256410242  11.2194010416667 0  12.0852864583333 0  L 13.470703125 0  C 14.6252170138889 0  15.5591362847222 0.31650641025641  16.2724609375 0.949519230769231  C 16.9857855902778 1.58253205128205  17.3383246527778 2.44791666666667  17.330078125 3.54567307692308  L 17.330078125 3.60576923076923  C 17.8248697916667 4.22275641025641  18.072265625 4.93589743589743  18.072265625 5.74519230769231  C 18.072265625 5.92147435897436  18.0598958333333 6.09375  18.03515625 6.26201923076923  C 18.3485243055556 6.7988782051282  18.5052083333333 7.37580128205128  18.5052083333333 7.99278846153846  C 18.5052083333333 8.28125  18.4680989583333 8.55769230769231  18.3938802083333 8.82211538461539  Z " fill-rule="nonzero" fill="#999999" stroke="none" transform="matrix(1 0 0 1 271 932 )" />
  </g>
</svg>