<?xml version="1.0" encoding="utf-8"?>
<svg version="1.1" xmlns:xlink="http://www.w3.org/1999/xlink" width="19px" height="20px" xmlns="http://www.w3.org/2000/svg">
  <g transform="matrix(1 0 0 1 -235 -932 )">
    <path d="M 2.931640625 16.6947115384615  C 3.08832465277778 16.5424679487179  3.16666666666667 16.3621794871795  3.16666666666667 16.1538461538462  C 3.16666666666667 15.9455128205128  3.08832465277778 15.7652243589744  2.931640625 15.6129807692308  C 2.77495659722222 15.4607371794872  2.58940972222222 15.3846153846154  2.375 15.3846153846154  C 2.16059027777778 15.3846153846154  1.97504340277778 15.4607371794872  1.818359375 15.6129807692308  C 1.66167534722222 15.7652243589744  1.58333333333333 15.9455128205128  1.58333333333333 16.1538461538462  C 1.58333333333333 16.3621794871795  1.66167534722222 16.5424679487179  1.818359375 16.6947115384615  C 1.97504340277778 16.8469551282051  2.16059027777778 16.9230769230769  2.375 16.9230769230769  C 2.58940972222222 16.9230769230769  2.77495659722222 16.8469551282051  2.931640625 16.6947115384615  Z M 17.1507161458333 10.2043269230769  C 17.3280164930556 9.83573717948718  17.4166666666667 9.51121794871795  17.4166666666667 9.23076923076923  C 17.4166666666667 8.82211538461538  17.255859375 8.46354166666666  16.9342447916667 8.15504807692308  C 16.6126302083333 7.84655448717949  16.2456597222222 7.69230769230769  15.8333333333333 7.69230769230769  L 11.4791666666667 7.69230769230769  C 11.4791666666667 7.2275641025641  11.6770833333333 6.58854166666667  12.0729166666667 5.77524038461539  C 12.46875 4.9619391025641  12.6666666666667 4.31891025641026  12.6666666666667 3.84615384615385  C 12.6666666666667 3.06089743589743  12.5347222222222 2.47996794871795  12.2708333333333 2.10336538461539  C 12.0069444444444 1.72676282051282  11.4791666666667 1.53846153846154  10.6875 1.53846153846154  C 10.4730902777778 1.74679487179487  10.31640625 2.08733974358974  10.2174479166667 2.56009615384615  C 10.1184895833333 3.03285256410256  9.99273003472222 3.53565705128205  9.84016927083333 4.06850961538462  C 9.68760850694445 4.60136217948718  9.44227430555556 5.0400641025641  9.10416666666667 5.38461538461539  C 8.92274305555556 5.56891025641026  8.60525173611111 5.93349358974359  8.15169270833333 6.47836538461539  C 8.11870659722222 6.51842948717949  8.02387152777778 6.63862179487179  7.8671875 6.83894230769231  C 7.71050347222222 7.03926282051282  7.58062065972222 7.20352564102564  7.4775390625 7.33173076923077  C 7.37445746527778 7.4599358974359  7.23220486111111 7.63020833333333  7.05078125 7.84254807692308  C 6.86935763888889 8.05488782051282  6.70442708333333 8.23116987179487  6.55598958333333 8.37139423076923  C 6.40755208333333 8.51161858974359  6.24880642361111 8.65384615384615  6.07975260416667 8.79807692307692  C 5.91069878472222 8.94230769230769  5.74576822916667 9.05048076923077  5.5849609375 9.12259615384615  C 5.42415364583333 9.19471153846154  5.27777777777778 9.23076923076923  5.14583333333333 9.23076923076923  L 4.75 9.23076923076923  L 4.75 16.9230769230769  L 5.14583333333333 16.9230769230769  C 5.25303819444444 16.9230769230769  5.38292100694444 16.9350961538462  5.53548177083333 16.9591346153846  C 5.68804253472222 16.9831730769231  5.82411024305556 17.0092147435897  5.94368489583333 17.0372596153846  C 6.06325954861111 17.0653044871795  6.21994357638889 17.109375  6.41373697916667 17.1694711538462  C 6.60753038194444 17.2295673076923  6.75184461805556 17.275641025641  6.8466796875 17.3076923076923  C 6.94151475694444 17.3397435897436  7.087890625 17.3898237179487  7.28580729166667 17.4579326923077  C 7.48372395833333 17.5260416666667  7.60329861111111 17.568108974359  7.64453125 17.5841346153846  C 9.38454861111111 18.1690705128205  10.7947048611111 18.4615384615385  11.875 18.4615384615385  L 13.3717447916667 18.4615384615385  C 14.955078125 18.4615384615385  15.7467447916667 17.7924679487179  15.7467447916667 16.4543269230769  C 15.7467447916667 16.2459935897436  15.7261284722222 16.0216346153846  15.6848958333333 15.78125  C 15.9322916666667 15.6530448717949  16.1281467013889 15.4427083333333  16.2724609375 15.1502403846154  C 16.4167751736111 14.8577724358974  16.4889322916667 14.5633012820513  16.4889322916667 14.2668269230769  C 16.4889322916667 13.9703525641026  16.4147135416667 13.6939102564103  16.2662760416667 13.4375  C 16.7033420138889 13.036858974359  16.921875 12.5600961538462  16.921875 12.0072115384615  C 16.921875 11.806891025641  16.8806423611111 11.5845352564103  16.7981770833333 11.3401442307692  C 16.7157118055556 11.0957532051282  16.6126302083333 10.9054487179487  16.4889322916667 10.7692307692308  C 16.7528211805556 10.7612179487179  16.9734157986111 10.5729166666667  17.1507161458333 10.2043269230769  Z M 18.0598958333333 7.06730769230769  C 18.6866319444444 7.67628205128205  19 8.39342948717949  19 9.21875  C 19 9.93189102564102  18.7979600694444 10.5849358974359  18.3938802083333 11.1778846153846  C 18.4680989583333 11.4423076923077  18.5052083333333 11.71875  18.5052083333333 12.0072115384615  C 18.5052083333333 12.6241987179487  18.3485243055556 13.2011217948718  18.03515625 13.7379807692308  C 18.0598958333333 13.90625  18.072265625 14.0785256410256  18.072265625 14.2548076923077  C 18.072265625 15.0641025641026  17.8248697916667 15.7772435897436  17.330078125 16.3942307692308  C 17.3383246527778 17.5080128205128  16.9878472222222 18.3874198717949  16.2786458333333 19.0324519230769  C 15.5694444444444 19.677483974359  14.6334635416667 20  13.470703125 20  L 13.025390625 20  L 11.875 20  C 11.0833333333333 20  10.3019748263889 19.9098557692308  9.53092447916667 19.7295673076923  C 8.75987413194444 19.5492788461538  7.8671875 19.286858974359  6.85286458333333 18.9423076923077  C 5.89626736111111 18.6217948717949  5.32725694444444 18.4615384615385  5.14583333333333 18.4615384615385  L 1.58333333333333 18.4615384615385  C 1.14626736111111 18.4615384615385  0.773111979166667 18.3112980769231  0.4638671875 18.0108173076923  C 0.154622395833333 17.7103365384615  0 17.3477564102564  0 16.9230769230769  L 0 9.23076923076923  C 0 8.80608974358974  0.154622395833333 8.44350961538462  0.4638671875 8.14302884615385  C 0.773111979166667 7.84254807692308  1.14626736111111 7.69230769230769  1.58333333333333 7.69230769230769  L 4.97265625 7.69230769230769  C 5.26953125 7.5  5.83441840277778 6.87900641025641  6.66731770833333 5.82932692307692  C 7.14561631944444 5.22836538461539  7.58680555555556 4.71554487179487  7.99088541666667 4.29086538461539  C 8.18880208333333 4.09054487179487  8.33517795138889 3.74799679487179  8.43001302083333 3.26322115384615  C 8.52484809027778 2.77844551282051  8.65060763888889 2.27163461538461  8.80729166666667 1.74278846153846  C 8.96397569444444 1.21394230769231  9.21961805555556 0.78125  9.57421875 0.444711538461537  C 9.89583333333333 0.148237179487181  10.2669270833333 0  10.6875 0  C 11.3802083333333 0  12.0028211805556 0.130208333333335  12.5553385416667 0.390625  C 13.1078559027778 0.651041666666665  13.5284288194444 1.05769230769231  13.8170572916667 1.61057692307692  C 14.1056857638889 2.16346153846154  14.25 2.90865384615385  14.25 3.84615384615385  C 14.25 4.59134615384615  14.0520833333333 5.36057692307692  13.65625 6.15384615384615  L 15.8333333333333 6.15384615384615  C 16.6909722222222 6.15384615384615  17.4331597222222 6.45833333333333  18.0598958333333 7.06730769230769  Z " fill-rule="nonzero" fill="#999999" stroke="none" transform="matrix(1 0 0 1 235 932 )" />
  </g>
</svg>