<?xml version="1.0" encoding="utf-8"?>
<svg version="1.1" xmlns:xlink="http://www.w3.org/1999/xlink" width="30px" height="30px" xmlns="http://www.w3.org/2000/svg">
  <g transform="matrix(1 0 0 1 -24 -1237 )">
    <path d="M 39 1238  C 46.84 1238  53 1244.16  53 1252  C 53 1259.84  46.84 1266  39 1266  C 31.16 1266  25 1259.84  25 1252  C 25 1244.16  31.16 1238  39 1238  Z " fill-rule="nonzero" fill="#ffffff" stroke="none" />
    <path d="M 39 1238  C 46.84 1238  53 1244.16  53 1252  C 53 1259.84  46.84 1266  39 1266  C 31.16 1266  25 1259.84  25 1252  C 25 1244.16  31.16 1238  39 1238  Z " stroke-width="2" stroke="#e4e4e4" fill="none" />
  </g>
</svg>