<?xml version="1.0" encoding="utf-8"?>
<svg version="1.1" xmlns:xlink="http://www.w3.org/1999/xlink" width="331px" height="104px" xmlns="http://www.w3.org/2000/svg">
  <g transform="matrix(1 0 0 1 -24 -639 )">
    <path d="M 25 643  A 3 3 0 0 1 28 640 L 351 640  A 3 3 0 0 1 354 643 L 354 739  A 3 3 0 0 1 351 742 L 28 742  A 3 3 0 0 1 25 739 L 25 643  Z " fill-rule="nonzero" fill="#000000" stroke="none" fill-opacity="0.0196078431372549" />
    <path d="M 24.5 643  A 3.5 3.5 0 0 1 28 639.5 L 351 639.5  A 3.5 3.5 0 0 1 354.5 643 L 354.5 739  A 3.5 3.5 0 0 1 351 742.5 L 28 742.5  A 3.5 3.5 0 0 1 24.5 739 L 24.5 643  Z " stroke-width="1" stroke-dasharray="9,4" stroke="#d9d9d9" fill="none" stroke-dashoffset="0.5" />
  </g>
</svg>