<?xml version="1.0" encoding="utf-8"?>
<svg version="1.1" xmlns:xlink="http://www.w3.org/1999/xlink" width="70px" height="25px" xmlns="http://www.w3.org/2000/svg">
  <g transform="matrix(1 0 0 1 -29 -824 )">
    <path d="M 30 832  A 7 7 0 0 1 37 825 L 91 825  A 7 7 0 0 1 98 832 L 98 841  A 7 7 0 0 1 91 848 L 37 848  A 7 7 0 0 1 30 841 L 30 832  Z " fill-rule="nonzero" fill="#81d3f8" stroke="none" fill-opacity="0.168627450980392" />
    <path d="M 29.5 832  A 7.5 7.5 0 0 1 37 824.5 L 91 824.5  A 7.5 7.5 0 0 1 98.5 832 L 98.5 841  A 7.5 7.5 0 0 1 91 848.5 L 37 848.5  A 7.5 7.5 0 0 1 29.5 841 L 29.5 832  Z " stroke-width="1" stroke="#0079fe" fill="none" stroke-opacity="0.654901960784314" />
  </g>
</svg>