<?xml version="1.0" encoding="utf-8"?>
<svg version="1.1" xmlns:xlink="http://www.w3.org/1999/xlink" width="20px" height="17px" xmlns="http://www.w3.org/2000/svg">
  <g transform="matrix(1 0 0 1 -84 -130 )">
    <path d="M 19.7526041666667 13.85234375  C 19.9175347222222 14.0205729166667  20 14.2197916666667  20 14.45  L 20 16.15  C 20 16.3802083333333  19.9175347222222 16.5794270833333  19.7526041666667 16.74765625  C 19.5876736111111 16.9158854166667  19.3923611111111 17  19.1666666666667 17  L 0.833333333333333 17  C 0.607638888888889 17  0.412326388888889 16.9158854166667  0.247395833333333 16.74765625  C 0.0824652777777778 16.5794270833333  0 16.3802083333333  0 16.15  L 0 14.45  C 0 14.2197916666667  0.0824652777777778 14.0205729166667  0.247395833333333 13.85234375  C 0.412326388888889 13.6841145833333  0.607638888888889 13.6  0.833333333333333 13.6  L 19.1666666666667 13.6  C 19.3923611111111 13.6  19.5876736111111 13.6841145833333  19.7526041666667 13.85234375  Z M 19.7526041666667 7.05234375  C 19.9175347222222 7.22057291666667  20 7.41979166666667  20 7.65  L 20 9.35  C 20 9.58020833333333  19.9175347222222 9.77942708333333  19.7526041666667 9.94765625  C 19.5876736111111 10.1158854166667  19.3923611111111 10.2  19.1666666666667 10  L 0.833333333333333 10  C 0.607638888888889 10.2  0.412326388888889 10.1158854166667  0.247395833333333 9.94765625  C 0.0824652777777778 9.77942708333333  0 9.58020833333333  0 9.35  L 0 7.65  C 0 7.41979166666667  0.0824652777777778 7.22057291666667  0.247395833333333 7.05234375  C 0.412326388888889 6.88411458333333  0.607638888888889 6.8  0.833333333333333 7  L 19.1666666666667 7  C 19.3923611111111 6.8  19.5876736111111 6.88411458333333  19.7526041666667 7.05234375  Z M 19.7526041666667 0.252343750000001  C 19.9175347222222 0.420572916666665  20 0.619791666666665  20 0.850000000000001  L 20 2.55  C 20 2.78020833333333  19.9175347222222 2.97942708333333  19.7526041666667 3.14765625  C 19.5876736111111 3.31588541666666  19.3923611111111 3.4  19.1666666666667 3.4  L 0.833333333333333 3.4  C 0.607638888888889 3.4  0.412326388888889 3.31588541666666  0.247395833333333 3.14765625  C 0.0824652777777778 2.97942708333333  0 2.78020833333333  0 2.55  L 0 0.850000000000001  C 0 0.619791666666665  0.0824652777777778 0.420572916666665  0.247395833333333 0.252343750000001  C 0.412326388888889 0.0841145833333323  0.607638888888889 0  0.833333333333333 0  L 19.1666666666667 0  C 19.3923611111111 0  19.5876736111111 0.0841145833333323  19.7526041666667 0.252343750000001  Z " fill-rule="nonzero" fill="#aaaaaa" stroke="none" transform="matrix(1 0 0 1 84 130 )" />
  </g>
</svg>