<?xml version="1.0" encoding="utf-8"?>
<svg version="1.1" xmlns:xlink="http://www.w3.org/1999/xlink" width="377px" height="694px" xmlns="http://www.w3.org/2000/svg">
  <defs>
    <filter x="919px" y="347px" width="377px" height="694px" filterUnits="userSpaceOnUse" id="filter103">
      <feOffset dx="0" dy="0" in="SourceAlpha" result="shadowOffsetInner" />
      <feGaussianBlur stdDeviation="0.5" in="shadowOffsetInner" result="shadowGaussian" />
      <feComposite in2="shadowGaussian" operator="atop" in="SourceAlpha" result="shadowComposite" />
      <feColorMatrix type="matrix" values="0 0 0 0 0  0 0 0 0 0  0 0 0 0 0  0 0 0 0.349019607843137 0  " in="shadowComposite" />
    </filter>
    <g id="widget104">
      <path d="M 921 376  A 27 27 0 0 1 948 349 L 1267 349  A 27 27 0 0 1 1294 376 L 1294 1039  L 921 1039  L 921 376  Z " fill-rule="nonzero" fill="#ffffff" stroke="none" fill-opacity="0" />
      <path d="M 920.5 376  A 27.5 27.5 0 0 1 948 348.5 L 1267 348.5  A 27.5 27.5 0 0 1 1294.5 376 L 1294.5 1039.5  L 920.5 1039.5  L 920.5 376  Z " stroke-width="1" stroke="#f2f2f2" fill="none" stroke-opacity="0.203921568627451" />
    </g>
  </defs>
  <g transform="matrix(1 0 0 1 -919 -347 )">
    <use xlink:href="#widget104" filter="url(#filter103)" />
    <use xlink:href="#widget104" />
  </g>
</svg>