<?xml version="1.0" encoding="utf-8"?>
<svg version="1.1" xmlns:xlink="http://www.w3.org/1999/xlink" width="14px" height="14px" xmlns="http://www.w3.org/2000/svg">
  <g transform="matrix(1 0 0 1 -353 -157 )">
    <path d="M 360 158  C 363.36 158  366 160.64  366 164  C 366 167.36  363.36 170  360 170  C 356.64 170  354 167.36  354 164  C 354 160.64  356.64 158  360 158  Z " fill-rule="nonzero" fill="#0d0d51" stroke="none" />
    <path d="M 360 158  C 363.36 158  366 160.64  366 164  C 366 167.36  363.36 170  360 170  C 356.64 170  354 167.36  354 164  C 354 160.64  356.64 158  360 158  Z " stroke-width="2" stroke="#ffffff" fill="none" />
  </g>
</svg>