<?xml version="1.0" encoding="utf-8"?>
<svg version="1.1" xmlns:xlink="http://www.w3.org/1999/xlink" width="331px" height="104px" xmlns="http://www.w3.org/2000/svg">
  <g transform="matrix(1 0 0 1 -36 -4774 )">
    <path d="M 37 4778  A 3 3 0 0 1 40 4775 L 363 4775  A 3 3 0 0 1 366 4778 L 366 4874  A 3 3 0 0 1 363 4877 L 40 4877  A 3 3 0 0 1 37 4874 L 37 4778  Z " fill-rule="nonzero" fill="#000000" stroke="none" fill-opacity="0.0196078431372549" />
    <path d="M 36.5 4778  A 3.5 3.5 0 0 1 40 4774.5 L 363 4774.5  A 3.5 3.5 0 0 1 366.5 4778 L 366.5 4874  A 3.5 3.5 0 0 1 363 4877.5 L 40 4877.5  A 3.5 3.5 0 0 1 36.5 4874 L 36.5 4778  Z " stroke-width="1" stroke-dasharray="9,4" stroke="#d9d9d9" fill="none" stroke-dashoffset="0.5" />
  </g>
</svg>