<?xml version="1.0" encoding="utf-8"?>
<svg version="1.1" xmlns:xlink="http://www.w3.org/1999/xlink" width="21px" height="19px" xmlns="http://www.w3.org/2000/svg">
  <g transform="matrix(1 0 0 1 -467 -1006 )">
    <path d="M 19.3151953125 9.16259765625  C 19.3151953125 9.53421875  19.0136328125 9.836015625  18.642265625 9.836015625  L 1.37109375 9.836015625  C 0.999589843750001 9.836015625  0.698164062500001 9.53421875  0.698164062500001 9.16259765625  C 0.698164062500001 8.79099609375  0.999628906250001 8.48943359375  1.37109375 8.48943359375  L 18.642265625 8.48943359375  C 19.0136328125 8.48943359375  19.3151953125 8.79099609375  19.3151953125 9.16259765625  Z M 17.74513671875 5.8928125  C 17.37376953125 5.8928125  17.07220703125 5.59150390625  17.07220703125 5.21939453125  L 17.07220703125 2.3019921875  L 14.15625 2.3019921875  C 13.78490234375 2.3019921875  13.48333984375 2.00033203125  13.48333984375 1.62869140625  C 13.48333984375 1.2570703125  13.784921875 0.955390625  14.15625 0.955390625  L 17.7451171875 0.955390625  C 18.116484375 0.955390625  18.418046875 1.25705078125  18.418046875 1.62869140625  L 18.418046875 5.219375  C 18.418046875 5.59150390625  18.116484375 5.89279296875  17.7451171875 5.89279296875  Z M 5.85712890625 2.30197265625  L 2.941171875 2.30197265625  L 2.941171875 5.219375  C 2.941171875 5.591484375  2.63970703125 5.89279296875  2.2682421875 5.89279296875  C 1.89689453125 5.89279296875  1.59533203125 5.591484375  1.59533203125 5.219375  L 1.59533203125 1.6287109375  C 1.59533203125 1.25708984375  1.89689453125 0.95541015625  2.2682421875 0.95541015625  L 5.857109375 0.95541015625  C 6.2284765625 0.95541015625  6.5300390625 1.2570703125  6.5300390625 1.6287109375  C 6.5300390625 2.0003125  6.2284765625 2.30197265625  5.857109375 2.30197265625  Z M 2.2682421875 12.5289453125  C 2.63974609375 12.5289453125  2.941171875 12.83076171875  2.941171875 13.20236328125  L 2.941171875 16.119765625  L 5.857109375 16.119765625  C 6.2284765625 16.119765625  6.5300390625 16.42134765625  6.5300390625 16.79318359375  C 6.5300390625 17.16478515625  6.2284765625 17.46634765625  5.857109375 17.46634765625  L 2.26826171875 17.46634765625  C 1.8969140625 17.46634765625  1.5953515625 17.164765625  1.5953515625 16.79318359375  L 1.5953515625 13.20234375  C 1.5953515625 12.8307421875  1.8969140625 12.52892578125  2.26826171875 12.52892578125  Z M 14.15625 16.11974609375  L 17.0721875 16.11974609375  L 17.0721875 13.20234375  C 17.0721875 12.8307421875  17.37376953125 12.52892578125  17.7451171875 12.52892578125  C 18.11646484375 12.52892578125  18.418046875 12.8307421875  18.418046875 13.20234375  L 18.418046875 16.79318359375  C 18.418046875 17.16478515625  18.11646484375 17.46634765625  17.7451171875 17.46634765625  L 14.15626953125 17.46634765625  C 13.784921875 17.46634765625  13.483359375 17.164765625  13.483359375 16.79318359375  C 13.48333984375 16.42130859375  13.784921875 16.119765625  14.15626953125 16.119765625  Z " fill-rule="nonzero" fill="#000000" stroke="none" transform="matrix(1 0 0 1 467 1006 )" />
  </g>
</svg>