<?xml version="1.0" encoding="utf-8"?>
<svg version="1.1" xmlns:xlink="http://www.w3.org/1999/xlink" width="80px" height="30px" xmlns="http://www.w3.org/2000/svg">
  <g transform="matrix(1 0 0 1 -698 -1057 )">
    <path d="M 699 1060  A 2 2 0 0 1 701 1058 L 775 1058  A 2 2 0 0 1 777 1060 L 777 1084  A 2 2 0 0 1 775 1086 L 701 1086  A 2 2 0 0 1 699 1084 L 699 1060  Z " fill-rule="nonzero" fill="#f0f7ff" stroke="none" />
    <path d="M 698.5 1060  A 2.5 2.5 0 0 1 701 1057.5 L 775 1057.5  A 2.5 2.5 0 0 1 777.5 1060 L 777.5 1084  A 2.5 2.5 0 0 1 775 1086.5 L 701 1086.5  A 2.5 2.5 0 0 1 698.5 1084 L 698.5 1060  Z " stroke-width="1" stroke="#7abbff" fill="none" stroke-opacity="0.996078431372549" />
  </g>
</svg>