<?xml version="1.0" encoding="utf-8"?>
<svg version="1.1" xmlns:xlink="http://www.w3.org/1999/xlink" width="14px" height="14px" xmlns="http://www.w3.org/2000/svg">
  <g transform="matrix(1 0 0 1 -462 -95 )">
    <path d="M 469 96  C 472.36 96  475 98.64  475 102  C 475 105.36  472.36 108  469 108  C 465.64 108  463 105.36  463 102  C 463 98.64  465.64 96  469 96  Z " fill-rule="nonzero" fill="#0d0d51" stroke="none" />
    <path d="M 469 96  C 472.36 96  475 98.64  475 102  C 475 105.36  472.36 108  469 108  C 465.64 108  463 105.36  463 102  C 463 98.64  465.64 96  469 96  Z " stroke-width="2" stroke="#ffffff" fill="none" />
  </g>
</svg>