<?xml version="1.0" encoding="utf-8"?>
<svg version="1.1" xmlns:xlink="http://www.w3.org/1999/xlink" width="331px" height="104px" xmlns="http://www.w3.org/2000/svg">
  <g transform="matrix(1 0 0 1 -137 -1997 )">
    <path d="M 138 2001  A 3 3 0 0 1 141 1998 L 464 1998  A 3 3 0 0 1 467 2001 L 467 2097  A 3 3 0 0 1 464 2100 L 141 2100  A 3 3 0 0 1 138 2097 L 138 2001  Z " fill-rule="nonzero" fill="#000000" stroke="none" fill-opacity="0.0196078431372549" />
    <path d="M 137.5 2001  A 3.5 3.5 0 0 1 141 1997.5 L 464 1997.5  A 3.5 3.5 0 0 1 467.5 2001 L 467.5 2097  A 3.5 3.5 0 0 1 464 2100.5 L 141 2100.5  A 3.5 3.5 0 0 1 137.5 2097 L 137.5 2001  Z " stroke-width="1" stroke-dasharray="9,4" stroke="#d9d9d9" fill="none" stroke-dashoffset="0.5" />
  </g>
</svg>