<?xml version="1.0" encoding="utf-8"?>
<svg version="1.1" xmlns:xlink="http://www.w3.org/1999/xlink" width="453px" height="104px" xmlns="http://www.w3.org/2000/svg">
  <g transform="matrix(1 0 0 1 -90 -172 )">
    <path d="M 91 176  A 3 3 0 0 1 94 173 L 539 173  A 3 3 0 0 1 542 176 L 542 272  A 3 3 0 0 1 539 275 L 94 275  A 3 3 0 0 1 91 272 L 91 176  Z " fill-rule="nonzero" fill="#000000" stroke="none" fill-opacity="0.0196078431372549" />
    <path d="M 90.5 176  A 3.5 3.5 0 0 1 94 172.5 L 539 172.5  A 3.5 3.5 0 0 1 542.5 176 L 542.5 272  A 3.5 3.5 0 0 1 539 275.5 L 94 275.5  A 3.5 3.5 0 0 1 90.5 272 L 90.5 176  Z " stroke-width="1" stroke-dasharray="9,4" stroke="#d9d9d9" fill="none" stroke-dashoffset="0.5" />
  </g>
</svg>