<svg t="1617686329205" class="icon" viewBox="0 0 1024 1024" version="1.1" xmlns="http://www.w3.org/2000/svg" p-id="12608" width="16" height="16"><path d="M522.689679 455.703011 897.496052 830.509388C915.99391 849.007246 915.99391 878.9982 897.496052 897.496059 878.998193 915.993917 849.007239 915.993917 830.509381 897.496059L455.703008 522.689682 80.896635 897.496056C62.398777 915.993914 32.407822 915.993914 13.909964 897.496056-4.587894 878.998198-4.587894 849.007243 13.909964 830.509385L388.716338 455.703011 13.909966 80.896635C-4.587892 62.398776-4.587892 32.407822 13.909967 13.909964 32.407825-4.587895 62.398779-4.587894 80.896638 13.909964L455.70301 388.71634 830.509384 13.909966C849.007242-4.587892 878.998196-4.587892 897.496054 13.909966 915.993913 32.407825 915.993913 62.398779 897.496054 80.896637L522.689679 455.703011Z" p-id="12609" fill="#8a8a8a"></path></svg>