<?xml version="1.0" encoding="utf-8"?>
<svg version="1.1" xmlns:xlink="http://www.w3.org/1999/xlink" width="13px" height="8px" xmlns="http://www.w3.org/2000/svg">
  <g transform="matrix(1 0 0 1 -1415 -464 )">
    <path d="M 12.8697394789579 6.54295532646048  C 12.9565798263193 6.63459335624284  13 6.73997709049255  13 6.85910652920962  C 13 6.97823596792669  12.9565798263193 7.0836197021764  12.8697394789579 7.17525773195876  L 12.2184368737475 7.86254295532646  C 12.1315965263861 7.95418098510882  12.0317301269205 8  11.9188376753507 8  C 11.8059452237809 8  11.7060788243153 7.95418098510882  11.6192384769539 7.86254295532646  L 6.5 2.46048109965636  L 1.38076152304609 7.86254295532646  C 1.2939211756847 7.95418098510882  1.19405477621911 8  1.0811623246493 8  C 0.968269873079492 8  0.868403473613895 7.95418098510882  0.781563126252505 7.86254295532646  L 0.130260521042084 7.17525773195876  C 0.0434201736806948 7.0836197021764  0 6.97823596792669  0 6.85910652920962  C 0 6.73997709049255  0.0434201736806948 6.63459335624284  0.130260521042084 6.54295532646048  L 6.20040080160321 0.13745704467354  C 6.2872411489646 0.0458190148911788  6.38710754843019 0  6.5 0  C 6.61289245156981 0  6.7127588510354 0.0458190148911788  6.79959919839679 0.13745704467354  L 12.8697394789579 6.54295532646048  Z " fill-rule="nonzero" fill="#999999" stroke="none" transform="matrix(1 0 0 1 1415 464 )" />
  </g>
</svg>