<?xml version="1.0" encoding="utf-8"?>
<svg version="1.1" xmlns:xlink="http://www.w3.org/1999/xlink" width="14px" height="14px" xmlns="http://www.w3.org/2000/svg">
  <g transform="matrix(1 0 0 1 -1248 -133 )">
    <path d="M 1255 134  C 1258.36 134  1261 136.64  1261 140  C 1261 143.36  1258.36 146  1255 146  C 1251.64 146  1249 143.36  1249 140  C 1249 136.64  1251.64 134  1255 134  Z " fill-rule="nonzero" fill="#0d0d51" stroke="none" />
    <path d="M 1255 134  C 1258.36 134  1261 136.64  1261 140  C 1261 143.36  1258.36 146  1255 146  C 1251.64 146  1249 143.36  1249 140  C 1249 136.64  1251.64 134  1255 134  Z " stroke-width="2" stroke="#ffffff" fill="none" />
  </g>
</svg>