<?xml version="1.0" encoding="utf-8"?>
<svg version="1.1" xmlns:xlink="http://www.w3.org/1999/xlink" width="331px" height="104px" xmlns="http://www.w3.org/2000/svg">
  <g transform="matrix(1 0 0 1 -1922 -5606 )">
    <path d="M 1923 5610  A 3 3 0 0 1 1926 5607 L 2249 5607  A 3 3 0 0 1 2252 5610 L 2252 5706  A 3 3 0 0 1 2249 5709 L 1926 5709  A 3 3 0 0 1 1923 5706 L 1923 5610  Z " fill-rule="nonzero" fill="#000000" stroke="none" fill-opacity="0.0196078431372549" />
    <path d="M 1922.5 5610  A 3.5 3.5 0 0 1 1926 5606.5 L 2249 5606.5  A 3.5 3.5 0 0 1 2252.5 5610 L 2252.5 5706  A 3.5 3.5 0 0 1 2249 5709.5 L 1926 5709.5  A 3.5 3.5 0 0 1 1922.5 5706 L 1922.5 5610  Z " stroke-width="1" stroke-dasharray="9,4" stroke="#d9d9d9" fill="none" stroke-dashoffset="0.5" />
  </g>
</svg>