<?xml version="1.0" encoding="utf-8"?>
<svg version="1.1" xmlns:xlink="http://www.w3.org/1999/xlink" width="80px" height="35px" xmlns="http://www.w3.org/2000/svg">
  <g transform="matrix(1 0 0 1 -1124 -210 )">
    <path d="M 1125 215  A 4 4 0 0 1 1129 211 L 1199 211  A 4 4 0 0 1 1203 215 L 1203 240  A 4 4 0 0 1 1199 244 L 1129 244  A 4 4 0 0 1 1125 240 L 1125 215  Z " fill-rule="nonzero" fill="#f0f7ff" stroke="none" />
    <path d="M 1124.5 215  A 4.5 4.5 0 0 1 1129 210.5 L 1199 210.5  A 4.5 4.5 0 0 1 1203.5 215 L 1203.5 240  A 4.5 4.5 0 0 1 1199 244.5 L 1129 244.5  A 4.5 4.5 0 0 1 1124.5 240 L 1124.5 215  Z " stroke-width="1" stroke="#7abbff" fill="none" stroke-opacity="0.996078431372549" />
  </g>
</svg>