<?xml version="1.0" encoding="utf-8"?>
<svg version="1.1" xmlns:xlink="http://www.w3.org/1999/xlink" width="22px" height="22px" xmlns="http://www.w3.org/2000/svg">
  <g transform="matrix(1 0 0 1 -333 -25 )">
    <path d="M 22 2  C 22 0.894999999999999  21.104 0  20 0  L 2 0  C 0.894999999999999 0  0 0.894999999999999  0 2  L 0 20  C 0 21.105  0.894999999999999 22  2 22  L 20 22  C 21.105 22  22 21.105  22 20  L 22 2  Z M 17.707 6.293  C 18.098 6.684  18.098 7.316  17.707 7.707  L 10.147 15.267  C 9.959 15.455  9.705 15.56  9.44 15.56  C 9.175 15.56  8.92 15.455  8.733 15.267  L 5.28 11.814  C 4.889 11.423  4.889 10.791  5.28 10.4  C 5.671 10.009  6.303 10.009  6.694 10.4  L 9.44 13.146  L 16.293 6.293  C 16.684 5.902  17.316 5.902  17.707 6.293  Z " fill-rule="nonzero" fill="#2d99f5" stroke="none" transform="matrix(1 0 0 1 333 25 )" />
  </g>
</svg>