<?xml version="1.0" encoding="utf-8"?>
<svg version="1.1" xmlns:xlink="http://www.w3.org/1999/xlink" width="80px" height="30px" xmlns="http://www.w3.org/2000/svg">
  <g transform="matrix(1 0 0 1 -1486 -659 )">
    <path d="M 1486.5 662  A 2.5 2.5 0 0 1 1489 659.5 L 1563 659.5  A 2.5 2.5 0 0 1 1565.5 662 L 1565.5 686  A 2.5 2.5 0 0 1 1563 688.5 L 1489 688.5  A 2.5 2.5 0 0 1 1486.5 686 L 1486.5 662  Z " fill-rule="nonzero" fill="#f9f9f9" stroke="none" />
    <path d="M 1486.5 662  A 2.5 2.5 0 0 1 1489 659.5 L 1563 659.5  A 2.5 2.5 0 0 1 1565.5 662 L 1565.5 686  A 2.5 2.5 0 0 1 1563 688.5 L 1489 688.5  A 2.5 2.5 0 0 1 1486.5 686 L 1486.5 662  Z " stroke-width="1" stroke="#e4e4e4" fill="none" />
  </g>
</svg>