<?xml version="1.0" encoding="utf-8"?>
<svg version="1.1" xmlns:xlink="http://www.w3.org/1999/xlink" width="30px" height="30px" xmlns="http://www.w3.org/2000/svg">
  <g transform="matrix(1 0 0 1 -24 -1047 )">
    <path d="M 39 1048  C 46.84 1048  53 1054.16  53 1062  C 53 1069.84  46.84 1076  39 1076  C 31.16 1076  25 1069.84  25 1062  C 25 1054.16  31.16 1048  39 1048  Z " fill-rule="nonzero" fill="#0079fe" stroke="none" />
    <path d="M 39 1048  C 46.84 1048  53 1054.16  53 1062  C 53 1069.84  46.84 1076  39 1076  C 31.16 1076  25 1069.84  25 1062  C 25 1054.16  31.16 1048  39 1048  Z " stroke-width="2" stroke="#0079fe" fill="none" />
  </g>
</svg>