<?xml version="1.0" encoding="utf-8"?>
<svg version="1.1" xmlns:xlink="http://www.w3.org/1999/xlink" width="726px" height="104px" xmlns="http://www.w3.org/2000/svg">
  <g transform="matrix(1 0 0 1 -206 -1549 )">
    <path d="M 207 1553  A 3 3 0 0 1 210 1550 L 928 1550  A 3 3 0 0 1 931 1553 L 931 1649  A 3 3 0 0 1 928 1652 L 210 1652  A 3 3 0 0 1 207 1649 L 207 1553  Z " fill-rule="nonzero" fill="#000000" stroke="none" fill-opacity="0.0196078431372549" />
    <path d="M 206.5 1553  A 3.5 3.5 0 0 1 210 1549.5 L 928 1549.5  A 3.5 3.5 0 0 1 931.5 1553 L 931.5 1649  A 3.5 3.5 0 0 1 928 1652.5 L 210 1652.5  A 3.5 3.5 0 0 1 206.5 1649 L 206.5 1553  Z " stroke-width="1" stroke-dasharray="9,4" stroke="#d9d9d9" fill="none" stroke-dashoffset="0.5" />
  </g>
</svg>